<svg viewBox="10 38 242 234" xmlns="http://www.w3.org/2000/svg"><g fill="#FFFFFF"><path d="M56.4952 123.848 56.4952 99.4179C38.6814 93.48 19.68 90.2566 0 90.2566L0 227.338C0 249.563 17.9834 267.377 40.0386 267.377L177.12 267.377C177.12 250.581 174.745 234.294 170.334 218.855L151.502 218.855C99.0786 218.855 56.4952 176.272 56.4952 123.848" transform="matrix(1 0 0 1.00174 13.639 0)"></path><path d="M233.615 218.855C233.615 120.964 154.386 41.7352 56.4952 41.7352L56.4952 41.7352 56.4952 99.4179C111.463 117.91 154.386 162.699 170.334 218.855L233.615 218.855" transform="matrix(1 0 0 1.00174 13.639 0)"></path></g></svg>